<svg width="200" height="110" viewBox="0 0 200 110" fill="none" xmlns="http://www.w3.org/2000/svg">
	<g clip-path="url(#clip0)">
		<mask id="path-1-inside-1" fill="white">
			<path d="M28.7873 75.2224L28.8459 102.884C27.7659 103.059 26.8575 103.147 25.9073 103.152C24.9152 103.156 24.0487 103.068 22.8808 102.9L22.8515 89.5009L23.0608 85.4362L21.985 88.5925L17.2548 100.577C16.2627 100.711 15.3962 100.753 14.5757 100.757C13.7971 100.757 12.9348 100.719 11.8506 100.59L6.81067 88.5841L5.81021 85.9511L5.9902 89.5386L6.01951 102.938C4.98137 103.114 3.90138 103.202 2.99301 103.206C2.00092 103.21 1.17627 103.122 0.0544184 102.955L0 75.327C0.820461 75.1093 1.8586 74.9754 3.23998 74.9754C4.36184 74.9712 5.52974 75.0549 6.74369 75.2265L14.2576 92.3264L14.7809 93.7078L15.212 92.3223L22.0897 75.1889C23.3413 75.0131 24.078 74.9251 25.5055 74.921C26.5813 74.921 27.6194 75.0089 28.7873 75.2224Z" />
			<path d="M48.1895 92.7283L48.2105 102.842C47.2184 103.018 46.1342 103.105 45.0542 103.11C43.9742 103.114 42.9361 103.026 41.7682 102.859L41.7431 92.3139L31.504 75.2642C33.0152 75.0005 34.5305 74.8247 36.0836 74.8205C37.0338 74.8205 38.1138 74.8582 39.0221 74.9879L44.2714 84.2265L45.2258 86.3446L46.1719 84.2223L51.3374 74.9628C52.2458 74.833 53.2379 74.787 54.1463 74.7828C55.5277 74.7786 56.9132 74.9502 58.2946 75.2056L48.1895 92.7283Z" />
			<path d="M58.4035 100.096C58.6128 97.8478 59.7765 95.9432 61.3755 94.9469C63.1923 96.412 66.0932 97.5716 69.3332 97.5674C72.4434 97.559 73.6531 96.5627 73.649 95.0516C73.6448 93.6241 72.9541 92.8037 68.0648 91.5646C63.3932 90.4511 59.2825 88.6469 59.2281 83.0712C59.2155 77.7549 63.4434 74.3307 69.8439 74.3182C74.6411 74.3056 77.8434 75.8586 79.4885 77.1479C79.3629 79.1363 78.2871 81.3423 76.5164 82.3846C74.9131 81.2628 72.4936 80.233 69.4211 80.2372C66.8718 80.2414 65.4904 81.1958 65.4946 82.4935C65.4988 83.8749 66.1057 84.4818 71.0787 85.679C76.2694 86.9642 79.8192 89.1618 79.9154 94.1306C80.0578 100.138 75.8717 103.474 69.216 103.491C63.6444 103.499 60.1825 101.649 58.4035 100.096Z" />
			<path d="M104.136 80.7186L96.2703 80.7353L96.3163 102.737C95.2363 102.955 94.1563 103.043 93.0763 103.047C91.9963 103.051 90.9582 102.963 89.8782 102.75L89.8321 80.7479L81.9205 80.7646C81.7029 79.8144 81.615 78.8223 81.6108 77.914C81.6066 76.9219 81.6945 75.9675 81.908 75.0172L104.123 74.967C104.387 75.9172 104.475 76.8675 104.475 77.8177C104.479 78.7721 104.395 79.7223 104.136 80.7186Z" />
			<path d="M107.945 102.712L107.886 75.0047C108.925 74.787 109.963 74.741 111.043 74.7368C112.123 74.7326 113.161 74.7745 114.329 74.9879L114.387 102.695C113.349 102.871 112.311 102.959 111.231 102.963C110.147 102.963 109.067 102.879 107.945 102.712Z" />
			<path d="M148.236 106.772C146.9 108.33 144.912 109.158 142.622 109.853C140.625 106.098 137.377 103.424 132.881 103.436C124.538 103.323 118.561 97.5004 118.544 88.7725C118.523 80.0865 124.605 74.021 133.078 74C141.551 73.9833 147.658 79.8019 147.675 88.7055C147.687 93.892 145.49 98.1785 141.864 100.778C144.941 102.109 147.235 104.223 148.236 106.772ZM133.132 97.3371C137.716 97.3288 140.688 93.9046 140.676 88.7181C140.663 83.4019 137.674 80.0823 133.095 80.0907C128.511 80.0991 125.539 83.4353 125.547 88.7516C125.56 93.9423 128.549 97.3497 133.132 97.3371Z" />
			<path d="M151.576 91.506L151.538 74.9084C152.577 74.7326 153.657 74.6447 154.736 74.6405C155.816 74.6363 156.896 74.7242 158.023 74.8917L158.06 91.4013C158.069 95.1604 160.149 97.3622 163.649 97.3539C167.148 97.3455 169.178 95.1395 169.17 91.3762L169.132 74.8665C170.124 74.6907 171.121 74.6028 172.201 74.5986C173.239 74.5944 174.319 74.6824 175.445 74.8498L175.482 91.2758C175.499 98.9697 170.581 103.344 163.623 103.361C156.356 103.382 151.593 99.3297 151.576 91.506Z" />
			<path d="M200 99.6143C200 100.565 199.916 101.561 199.703 102.511L180.945 102.553L180.887 74.8037L199.213 74.7619C199.473 75.6702 199.565 76.7042 199.565 77.6586C199.565 78.6088 199.481 79.5591 199.226 80.5135L187.337 80.5386L187.35 85.5535L199.297 85.5325C199.514 86.4828 199.602 87.433 199.607 88.3832C199.607 89.3334 199.523 90.2418 199.309 91.192L187.362 91.213L187.375 96.7888L199.694 96.7636C199.912 97.7139 200 98.6641 200 99.6143Z" />
			<path d="M78.1699 54.5816H56.3356V32.7473H67.2527C73.2806 32.7473 78.1699 37.6366 78.1699 43.6644V54.5816ZM143.664 32.7473H132.747C126.719 32.7473 121.83 37.6366 121.83 43.6644V54.5816H143.664V32.7473ZM121.834 0H78.1699C66.1141 0 56.3356 9.77437 56.3356 21.8343H72.7113C81.7531 21.8343 89.087 29.164 89.087 38.2101V54.5858H110.921V38.2059C110.921 29.164 118.251 21.8301 127.297 21.8301H143.673C143.664 9.77437 133.89 0 121.834 0Z" />
		</mask>
		<path d="M28.7873 75.2224L28.8459 102.884C27.7659 103.059 26.8575 103.147 25.9073 103.152C24.9152 103.156 24.0487 103.068 22.8808 102.9L22.8515 89.5009L23.0608 85.4362L21.985 88.5925L17.2548 100.577C16.2627 100.711 15.3962 100.753 14.5757 100.757C13.7971 100.757 12.9348 100.719 11.8506 100.59L6.81067 88.5841L5.81021 85.9511L5.9902 89.5386L6.01951 102.938C4.98137 103.114 3.90138 103.202 2.99301 103.206C2.00092 103.21 1.17627 103.122 0.0544184 102.955L0 75.327C0.820461 75.1093 1.8586 74.9754 3.23998 74.9754C4.36184 74.9712 5.52974 75.0549 6.74369 75.2265L14.2576 92.3264L14.7809 93.7078L15.212 92.3223L22.0897 75.1889C23.3413 75.0131 24.078 74.9251 25.5055 74.921C26.5813 74.921 27.6194 75.0089 28.7873 75.2224Z" stroke="#FAFAFF" stroke-width="2" mask="url(#path-1-inside-1)" />
		<path d="M48.1895 92.7283L48.2105 102.842C47.2184 103.018 46.1342 103.105 45.0542 103.11C43.9742 103.114 42.9361 103.026 41.7682 102.859L41.7431 92.3139L31.504 75.2642C33.0152 75.0005 34.5305 74.8247 36.0836 74.8205C37.0338 74.8205 38.1138 74.8582 39.0221 74.9879L44.2714 84.2265L45.2258 86.3446L46.1719 84.2223L51.3374 74.9628C52.2458 74.833 53.2379 74.787 54.1463 74.7828C55.5277 74.7786 56.9132 74.9502 58.2946 75.2056L48.1895 92.7283Z" stroke="#FAFAFF" stroke-width="2" mask="url(#path-1-inside-1)" />
		<path d="M58.4035 100.096C58.6128 97.8478 59.7765 95.9432 61.3755 94.9469C63.1923 96.412 66.0932 97.5716 69.3332 97.5674C72.4434 97.559 73.6531 96.5627 73.649 95.0516C73.6448 93.6241 72.9541 92.8037 68.0648 91.5646C63.3932 90.4511 59.2825 88.6469 59.2281 83.0712C59.2155 77.7549 63.4434 74.3307 69.8439 74.3182C74.6411 74.3056 77.8434 75.8586 79.4885 77.1479C79.3629 79.1363 78.2871 81.3423 76.5164 82.3846C74.9131 81.2628 72.4936 80.233 69.4211 80.2372C66.8718 80.2414 65.4904 81.1958 65.4946 82.4935C65.4988 83.8749 66.1057 84.4818 71.0787 85.679C76.2694 86.9642 79.8192 89.1618 79.9154 94.1306C80.0578 100.138 75.8717 103.474 69.216 103.491C63.6444 103.499 60.1825 101.649 58.4035 100.096Z" stroke="#FAFAFF" stroke-width="2" mask="url(#path-1-inside-1)" />
		<path d="M104.136 80.7186L96.2703 80.7353L96.3163 102.737C95.2363 102.955 94.1563 103.043 93.0763 103.047C91.9963 103.051 90.9582 102.963 89.8782 102.75L89.8321 80.7479L81.9205 80.7646C81.7029 79.8144 81.615 78.8223 81.6108 77.914C81.6066 76.9219 81.6945 75.9675 81.908 75.0172L104.123 74.967C104.387 75.9172 104.475 76.8675 104.475 77.8177C104.479 78.7721 104.395 79.7223 104.136 80.7186Z" stroke="#FAFAFF" stroke-width="2" mask="url(#path-1-inside-1)" />
		<path d="M107.945 102.712L107.886 75.0047C108.925 74.787 109.963 74.741 111.043 74.7368C112.123 74.7326 113.161 74.7745 114.329 74.9879L114.387 102.695C113.349 102.871 112.311 102.959 111.231 102.963C110.147 102.963 109.067 102.879 107.945 102.712Z" stroke="#FAFAFF" stroke-width="2" mask="url(#path-1-inside-1)" />
		<path d="M148.236 106.772C146.9 108.33 144.912 109.158 142.622 109.853C140.625 106.098 137.377 103.424 132.881 103.436C124.538 103.323 118.561 97.5004 118.544 88.7725C118.523 80.0865 124.605 74.021 133.078 74C141.551 73.9833 147.658 79.8019 147.675 88.7055C147.687 93.892 145.49 98.1785 141.864 100.778C144.941 102.109 147.235 104.223 148.236 106.772ZM133.132 97.3371C137.716 97.3288 140.688 93.9046 140.676 88.7181C140.663 83.4019 137.674 80.0823 133.095 80.0907C128.511 80.0991 125.539 83.4353 125.547 88.7516C125.56 93.9423 128.549 97.3497 133.132 97.3371Z" stroke="#FAFAFF" stroke-width="2" mask="url(#path-1-inside-1)" />
		<path d="M151.576 91.506L151.538 74.9084C152.577 74.7326 153.657 74.6447 154.736 74.6405C155.816 74.6363 156.896 74.7242 158.023 74.8917L158.06 91.4013C158.069 95.1604 160.149 97.3622 163.649 97.3539C167.148 97.3455 169.178 95.1395 169.17 91.3762L169.132 74.8665C170.124 74.6907 171.121 74.6028 172.201 74.5986C173.239 74.5944 174.319 74.6824 175.445 74.8498L175.482 91.2758C175.499 98.9697 170.581 103.344 163.623 103.361C156.356 103.382 151.593 99.3297 151.576 91.506Z" stroke="#FAFAFF" stroke-width="2" mask="url(#path-1-inside-1)" />
		<path d="M200 99.6143C200 100.565 199.916 101.561 199.703 102.511L180.945 102.553L180.887 74.8037L199.213 74.7619C199.473 75.6702 199.565 76.7042 199.565 77.6586C199.565 78.6088 199.481 79.5591 199.226 80.5135L187.337 80.5386L187.35 85.5535L199.297 85.5325C199.514 86.4828 199.602 87.433 199.607 88.3832C199.607 89.3334 199.523 90.2418 199.309 91.192L187.362 91.213L187.375 96.7888L199.694 96.7636C199.912 97.7139 200 98.6641 200 99.6143Z" stroke="#FAFAFF" stroke-width="2" mask="url(#path-1-inside-1)" />
		<path d="M78.1699 54.5816H56.3356V32.7473H67.2527C73.2806 32.7473 78.1699 37.6366 78.1699 43.6644V54.5816ZM143.664 32.7473H132.747C126.719 32.7473 121.83 37.6366 121.83 43.6644V54.5816H143.664V32.7473ZM121.834 0H78.1699C66.1141 0 56.3356 9.77437 56.3356 21.8343H72.7113C81.7531 21.8343 89.087 29.164 89.087 38.2101V54.5858H110.921V38.2059C110.921 29.164 118.251 21.8301 127.297 21.8301H143.673C143.664 9.77437 133.89 0 121.834 0Z" stroke="#FAFAFF" stroke-width="2" mask="url(#path-1-inside-1)" />
	</g>
	<defs>
		<clipPath id="clip0">
			<rect width="200" height="110" fill="white" />
		</clipPath>
	</defs>
</svg>
