<svg width="201" height="40" viewBox="0 0 201 40" fill="none" xmlns="http://www.w3.org/2000/svg">
<g clip-path="url(#clip0)">
<mask id="path-1-inside-1" fill="white">
<path d="M29.2873 4.22235L29.3459 31.8836C28.2659 32.0594 27.3575 32.1473 26.4073 32.1515C25.4152 32.1557 24.5487 32.0678 23.3808 31.9003L23.3515 18.5009L23.5608 14.4362L22.485 17.5925L17.7548 29.5771C16.7627 29.7111 15.8962 29.7529 15.0757 29.7571C14.2971 29.7571 13.4348 29.7194 12.3506 29.5897L7.31067 17.5841L6.31021 14.9511L6.4902 18.5386L6.51951 31.938C5.48137 32.1138 4.40138 32.2017 3.49301 32.2059C2.50092 32.2101 1.67627 32.1222 0.554418 31.9548L0.5 4.327C1.32046 4.10933 2.3586 3.97538 3.73998 3.97538C4.86184 3.97119 6.02974 4.05491 7.24369 4.22654L14.7576 21.3264L15.2809 22.7078L15.712 21.3223L22.5897 4.18886C23.8413 4.01305 24.578 3.92514 26.0055 3.92096C27.0813 3.92096 28.1194 4.00886 29.2873 4.22235Z"/>
<path d="M48.6895 21.7283L48.7105 31.8417C47.7184 32.0176 46.6342 32.1055 45.5542 32.1097C44.4742 32.1138 43.4361 32.0259 42.2682 31.8585L42.2431 21.3139L32.004 4.2642C33.5152 4.00048 35.0305 3.82467 36.5836 3.82049C37.5338 3.82049 38.6138 3.85816 39.5221 3.98793L44.7714 13.2265L45.7258 15.3446L46.6719 13.2223L51.8374 3.96281C52.7458 3.83305 53.7379 3.787 54.6463 3.78281C56.0277 3.77863 57.4132 3.95025 58.7946 4.20559L48.6895 21.7283Z"/>
<path d="M58.9035 29.0957C59.1128 26.8478 60.2765 24.9432 61.8755 23.9469C63.6923 25.412 66.5932 26.5716 69.8332 26.5674C72.9434 26.559 74.1531 25.5627 74.149 24.0516C74.1448 22.6241 73.4541 21.8037 68.5648 20.5646C63.8932 19.4511 59.7825 17.6469 59.7281 12.0711C59.7155 6.7549 63.9434 3.33072 70.3439 3.31817C75.1411 3.30561 78.3434 4.85863 79.9885 6.14792C79.8629 8.13629 78.7871 10.3423 77.0164 11.3846C75.4131 10.2628 72.9936 9.23303 69.9211 9.23721C67.3718 9.2414 65.9904 10.1958 65.9946 11.4935C65.9988 12.8749 66.6057 13.4818 71.5787 14.679C76.7694 15.9642 80.3192 18.1618 80.4154 23.1306C80.5578 29.1376 76.3717 32.4738 69.716 32.4906C64.1444 32.499 60.6825 30.6487 58.9035 29.0957Z"/>
<path d="M104.636 9.7186L96.7703 9.73534L96.8163 31.7371C95.7363 31.9548 94.6563 32.0427 93.5763 32.0469C92.4963 32.0511 91.4582 31.9632 90.3782 31.7497L90.3321 9.7479L82.4205 9.76465C82.2029 8.81442 82.115 7.82232 82.1108 6.91395C82.1066 5.92186 82.1945 4.96745 82.408 4.01723L104.623 3.96699C104.887 4.91722 104.975 5.86745 104.975 6.81768C104.979 7.77209 104.895 8.72232 104.636 9.7186Z"/>
<path d="M108.445 31.712L108.386 4.00467C109.425 3.787 110.463 3.74095 111.543 3.73677C112.623 3.73258 113.661 3.77445 114.829 3.98794L114.887 31.6952C113.849 31.8711 112.811 31.959 111.731 31.9631C110.647 31.9631 109.567 31.8794 108.445 31.712Z"/>
<path d="M148.736 35.7724C147.4 37.3296 145.412 38.1585 143.122 38.8534C141.125 35.0985 137.877 32.4236 133.381 32.4362C125.038 32.3231 119.061 26.5004 119.044 17.7725C119.023 9.08652 125.105 3.02097 133.578 3.00004C142.051 2.98329 148.158 8.80186 148.175 17.7055C148.187 22.892 145.99 27.1785 142.364 29.778C145.441 31.1092 147.735 33.2231 148.736 35.7724ZM133.632 26.3371C138.216 26.3288 141.188 22.9046 141.176 17.7181C141.163 12.4019 138.174 9.08233 133.595 9.0907C129.011 9.09908 126.039 12.4353 126.047 17.7516C126.06 22.9423 129.049 26.3497 133.632 26.3371Z"/>
<path d="M152.076 20.506L152.038 3.9084C153.077 3.73259 154.156 3.64468 155.236 3.64049C156.316 3.63631 157.396 3.72421 158.523 3.89165L158.56 20.4013C158.569 24.1604 160.649 26.3622 164.149 26.3539C167.648 26.3455 169.678 24.1395 169.67 20.3762L169.632 3.86654C170.624 3.69072 171.621 3.60282 172.701 3.59863C173.739 3.59444 174.819 3.68235 175.945 3.84979L175.982 20.2758C175.999 27.9697 171.081 32.3441 164.123 32.3608C156.856 32.3818 152.093 28.3297 152.076 20.506Z"/>
<path d="M200.5 28.6143C200.5 29.5646 200.416 30.5608 200.203 31.5111L181.445 31.5529L181.387 3.80374L199.713 3.76188C199.973 4.67024 200.065 5.70419 200.065 6.65861C200.065 7.60883 199.981 8.55906 199.726 9.51348L187.837 9.5386L187.85 14.5535L199.797 14.5325C200.014 15.4828 200.102 16.433 200.107 17.3832C200.107 18.3334 200.023 19.2418 199.809 20.192L187.862 20.213L187.875 25.7888L200.194 25.7636C200.412 26.7139 200.5 27.6641 200.5 28.6143Z"/>
</mask>
<path d="M29.2873 4.22235L29.3459 31.8836C28.2659 32.0594 27.3575 32.1473 26.4073 32.1515C25.4152 32.1557 24.5487 32.0678 23.3808 31.9003L23.3515 18.5009L23.5608 14.4362L22.485 17.5925L17.7548 29.5771C16.7627 29.7111 15.8962 29.7529 15.0757 29.7571C14.2971 29.7571 13.4348 29.7194 12.3506 29.5897L7.31067 17.5841L6.31021 14.9511L6.4902 18.5386L6.51951 31.938C5.48137 32.1138 4.40138 32.2017 3.49301 32.2059C2.50092 32.2101 1.67627 32.1222 0.554418 31.9548L0.5 4.327C1.32046 4.10933 2.3586 3.97538 3.73998 3.97538C4.86184 3.97119 6.02974 4.05491 7.24369 4.22654L14.7576 21.3264L15.2809 22.7078L15.712 21.3223L22.5897 4.18886C23.8413 4.01305 24.578 3.92514 26.0055 3.92096C27.0813 3.92096 28.1194 4.00886 29.2873 4.22235Z" stroke="url(#paint0_linear)" stroke-width="2" mask="url(#path-1-inside-1)"/>
<path d="M48.6895 21.7283L48.7105 31.8417C47.7184 32.0176 46.6342 32.1055 45.5542 32.1097C44.4742 32.1138 43.4361 32.0259 42.2682 31.8585L42.2431 21.3139L32.004 4.2642C33.5152 4.00048 35.0305 3.82467 36.5836 3.82049C37.5338 3.82049 38.6138 3.85816 39.5221 3.98793L44.7714 13.2265L45.7258 15.3446L46.6719 13.2223L51.8374 3.96281C52.7458 3.83305 53.7379 3.787 54.6463 3.78281C56.0277 3.77863 57.4132 3.95025 58.7946 4.20559L48.6895 21.7283Z" stroke="url(#paint1_linear)" stroke-width="2" mask="url(#path-1-inside-1)"/>
<path d="M58.9035 29.0957C59.1128 26.8478 60.2765 24.9432 61.8755 23.9469C63.6923 25.412 66.5932 26.5716 69.8332 26.5674C72.9434 26.559 74.1531 25.5627 74.149 24.0516C74.1448 22.6241 73.4541 21.8037 68.5648 20.5646C63.8932 19.4511 59.7825 17.6469 59.7281 12.0711C59.7155 6.7549 63.9434 3.33072 70.3439 3.31817C75.1411 3.30561 78.3434 4.85863 79.9885 6.14792C79.8629 8.13629 78.7871 10.3423 77.0164 11.3846C75.4131 10.2628 72.9936 9.23303 69.9211 9.23721C67.3718 9.2414 65.9904 10.1958 65.9946 11.4935C65.9988 12.8749 66.6057 13.4818 71.5787 14.679C76.7694 15.9642 80.3192 18.1618 80.4154 23.1306C80.5578 29.1376 76.3717 32.4738 69.716 32.4906C64.1444 32.499 60.6825 30.6487 58.9035 29.0957Z" stroke="url(#paint2_linear)" stroke-width="2" mask="url(#path-1-inside-1)"/>
<path d="M104.636 9.7186L96.7703 9.73534L96.8163 31.7371C95.7363 31.9548 94.6563 32.0427 93.5763 32.0469C92.4963 32.0511 91.4582 31.9632 90.3782 31.7497L90.3321 9.7479L82.4205 9.76465C82.2029 8.81442 82.115 7.82232 82.1108 6.91395C82.1066 5.92186 82.1945 4.96745 82.408 4.01723L104.623 3.96699C104.887 4.91722 104.975 5.86745 104.975 6.81768C104.979 7.77209 104.895 8.72232 104.636 9.7186Z" stroke="url(#paint3_linear)" stroke-width="2" mask="url(#path-1-inside-1)"/>
<path d="M108.445 31.712L108.386 4.00467C109.425 3.787 110.463 3.74095 111.543 3.73677C112.623 3.73258 113.661 3.77445 114.829 3.98794L114.887 31.6952C113.849 31.8711 112.811 31.959 111.731 31.9631C110.647 31.9631 109.567 31.8794 108.445 31.712Z" stroke="url(#paint4_linear)" stroke-width="2" mask="url(#path-1-inside-1)"/>
<path d="M148.736 35.7724C147.4 37.3296 145.412 38.1585 143.122 38.8534C141.125 35.0985 137.877 32.4236 133.381 32.4362C125.038 32.3231 119.061 26.5004 119.044 17.7725C119.023 9.08652 125.105 3.02097 133.578 3.00004C142.051 2.98329 148.158 8.80186 148.175 17.7055C148.187 22.892 145.99 27.1785 142.364 29.778C145.441 31.1092 147.735 33.2231 148.736 35.7724ZM133.632 26.3371C138.216 26.3288 141.188 22.9046 141.176 17.7181C141.163 12.4019 138.174 9.08233 133.595 9.0907C129.011 9.09908 126.039 12.4353 126.047 17.7516C126.06 22.9423 129.049 26.3497 133.632 26.3371Z" stroke="url(#paint5_linear)" stroke-width="2" mask="url(#path-1-inside-1)"/>
<path d="M152.076 20.506L152.038 3.9084C153.077 3.73259 154.156 3.64468 155.236 3.64049C156.316 3.63631 157.396 3.72421 158.523 3.89165L158.56 20.4013C158.569 24.1604 160.649 26.3622 164.149 26.3539C167.648 26.3455 169.678 24.1395 169.67 20.3762L169.632 3.86654C170.624 3.69072 171.621 3.60282 172.701 3.59863C173.739 3.59444 174.819 3.68235 175.945 3.84979L175.982 20.2758C175.999 27.9697 171.081 32.3441 164.123 32.3608C156.856 32.3818 152.093 28.3297 152.076 20.506Z" stroke="url(#paint6_linear)" stroke-width="2" mask="url(#path-1-inside-1)"/>
<path d="M200.5 28.6143C200.5 29.5646 200.416 30.5608 200.203 31.5111L181.445 31.5529L181.387 3.80374L199.713 3.76188C199.973 4.67024 200.065 5.70419 200.065 6.65861C200.065 7.60883 199.981 8.55906 199.726 9.51348L187.837 9.5386L187.85 14.5535L199.797 14.5325C200.014 15.4828 200.102 16.433 200.107 17.3832C200.107 18.3334 200.023 19.2418 199.809 20.192L187.862 20.213L187.875 25.7888L200.194 25.7636C200.412 26.7139 200.5 27.6641 200.5 28.6143Z" stroke="url(#paint7_linear)" stroke-width="2" mask="url(#path-1-inside-1)"/>
</g>
<defs>
<linearGradient id="paint0_linear" x1="100.5" y1="3" x2="100.5" y2="38.8534" gradientUnits="userSpaceOnUse">
<stop stop-color="#7F2DE5"/>
<stop offset="1" stop-color="#1AE1D9"/>
</linearGradient>
<linearGradient id="paint1_linear" x1="100.5" y1="3" x2="100.5" y2="38.8534" gradientUnits="userSpaceOnUse">
<stop stop-color="#7F2DE5"/>
<stop offset="1" stop-color="#1AE1D9"/>
</linearGradient>
<linearGradient id="paint2_linear" x1="100.5" y1="3" x2="100.5" y2="38.8534" gradientUnits="userSpaceOnUse">
<stop stop-color="#7F2DE5"/>
<stop offset="1" stop-color="#1AE1D9"/>
</linearGradient>
<linearGradient id="paint3_linear" x1="100.5" y1="3" x2="100.5" y2="38.8534" gradientUnits="userSpaceOnUse">
<stop stop-color="#7F2DE5"/>
<stop offset="1" stop-color="#1AE1D9"/>
</linearGradient>
<linearGradient id="paint4_linear" x1="100.5" y1="3" x2="100.5" y2="38.8534" gradientUnits="userSpaceOnUse">
<stop stop-color="#7F2DE5"/>
<stop offset="1" stop-color="#1AE1D9"/>
</linearGradient>
<linearGradient id="paint5_linear" x1="100.5" y1="3" x2="100.5" y2="38.8534" gradientUnits="userSpaceOnUse">
<stop stop-color="#7F2DE5"/>
<stop offset="1" stop-color="#1AE1D9"/>
</linearGradient>
<linearGradient id="paint6_linear" x1="100.5" y1="3" x2="100.5" y2="38.8534" gradientUnits="userSpaceOnUse">
<stop stop-color="#7F2DE5"/>
<stop offset="1" stop-color="#1AE1D9"/>
</linearGradient>
<linearGradient id="paint7_linear" x1="100.5" y1="3" x2="100.5" y2="38.8534" gradientUnits="userSpaceOnUse">
<stop stop-color="#7F2DE5"/>
<stop offset="1" stop-color="#1AE1D9"/>
</linearGradient>
<clipPath id="clip0">
<rect width="200" height="40" fill="white" transform="translate(0.5)"/>
</clipPath>
</defs>
</svg>
